<svg viewBox="0 0 220 467" fill="none" xmlns="http://www.w3.org/2000/svg" style="width:100%;height:100%">
  <rect width="220" height="467" fill="#1c1c1e"/>
  <text x="16" y="22" fill="#aaa" font-size="9" font-family="Outfit,sans-serif">16:16</text>
  <text x="16" y="48" fill="white" font-size="19" font-family="Outfit,sans-serif" font-weight="700">Olá 👋</text>
  <text x="16" y="64" fill="#888" font-size="10" font-family="Outfit,sans-serif">Aqui está o resumo da</text>
  <text x="16" y="78" fill="#888" font-size="10" font-family="Outfit,sans-serif">sua oficina hoje.</text>
  <rect x="128" y="50" width="80" height="30" rx="15" fill="#a78bfa" opacity="0.85"/>
  <text x="168" y="70" text-anchor="middle" fill="white" font-size="10" font-family="Outfit,sans-serif" font-weight="600">+ Nova OS</text>
  <rect x="10" y="92" width="96" height="78" rx="10" fill="#2a2a2e"/>
  <rect x="10" y="92" width="96" height="78" rx="10" stroke="#C75B12" stroke-width="1.2" stroke-opacity="0.8"/>
  <rect x="70" y="100" width="28" height="28" rx="7" fill="#7A4B2E" opacity="0.6"/>
  <text x="84" y="119" text-anchor="middle" fill="#D4AF37" font-size="13">💰</text>
  <text x="18" y="110" fill="#aaa" font-size="8" font-family="Outfit,sans-serif">CAIXA DA</text>
  <text x="18" y="121" fill="#aaa" font-size="8" font-family="Outfit,sans-serif">OFICINA</text>
  <text x="18" y="143" fill="white" font-size="12" font-family="Outfit,sans-serif" font-weight="700">R$ 4.830,00</text>
  <text x="18" y="158" fill="#888" font-size="8">Valores já pagos</text>
  <rect x="114" y="92" width="96" height="78" rx="10" fill="#2a2a2e"/>
  <rect x="114" y="92" width="96" height="78" rx="10" stroke="#7c5cfa" stroke-width="1.2" stroke-opacity="0.8"/>
  <rect x="174" y="100" width="28" height="28" rx="7" fill="#5b3fd4"/>
  <text x="188" y="119" text-anchor="middle" fill="white" font-size="13">↗</text>
  <text x="122" y="112" fill="#aaa" font-size="8">ADIANTADO</text>
  <text x="122" y="143" fill="white" font-size="13" font-family="Outfit,sans-serif" font-weight="700">R$ 500,00</text>
  <text x="122" y="158" fill="#888" font-size="8">A executar</text>
  <rect x="10" y="178" width="96" height="78" rx="10" fill="#2a2a2e"/>
  <rect x="10" y="178" width="96" height="78" rx="10" stroke="#C75B12" stroke-width="1.2" stroke-opacity="0.8"/>
  <rect x="70" y="186" width="28" height="28" rx="7" fill="#7A4B2E" opacity="0.6"/>
  <text x="84" y="205" text-anchor="middle" fill="#C75B12" font-size="13">⏱</text>
  <text x="18" y="196" fill="#aaa" font-size="8">A RECEBER</text>
  <text x="18" y="228" fill="white" font-size="12" font-family="Outfit,sans-serif" font-weight="700">R$ 900,00</text>
  <text x="18" y="243" fill="#888" font-size="8">Pagamentos pendentes</text>
  <rect x="114" y="178" width="96" height="78" rx="10" fill="#2a2a2e"/>
  <rect x="174" y="186" width="28" height="28" rx="7" fill="#444"/>
  <text x="188" y="205" text-anchor="middle" fill="#aaa" font-size="13">🔧</text>
  <text x="122" y="196" fill="#aaa" font-size="8">OS ABERTAS</text>
  <text x="122" y="228" fill="white" font-size="22" font-family="Outfit,sans-serif" font-weight="700">5</text>
  <text x="122" y="243" fill="#888" font-size="8">10 clientes · 10 carros</text>
  <text x="14" y="274" fill="white" font-size="11" font-family="Outfit,sans-serif" font-weight="600">Próximos serviços</text>
  <rect x="10" y="282" width="200" height="72" rx="9" fill="#242428"/>
  <text x="18" y="298" fill="white" font-size="10.5" font-family="Outfit,sans-serif" font-weight="600">Troca de filtro de barro</text>
  <text x="18" y="312" fill="#888" font-size="8.5">João Pereira · Honda — ABC-1D23</text>
  <rect x="18" y="318" width="68" height="16" rx="8" fill="none" stroke="#C75B12" stroke-width="1"/>
  <text x="52" y="330" text-anchor="middle" fill="#C75B12" font-size="8.5">Em andamento</text>
  <rect x="94" y="318" width="54" height="16" rx="8" fill="none" stroke="#C75B12" stroke-width="1"/>
  <text x="121" y="330" text-anchor="middle" fill="#C75B12" font-size="8.5">Adiantado</text>
  <text x="18" y="347" fill="#C75B12" font-size="9.5" font-weight="600">R$ 1.400,00</text>
  <rect x="10" y="362" width="200" height="58" rx="9" fill="#242428"/>
  <text x="18" y="378" fill="white" font-size="10.5" font-family="Outfit,sans-serif" font-weight="600">Troca de amortecedores</text>
  <text x="18" y="392" fill="#888" font-size="8.5">João · Volkswagen — AHS-9101</text>
  <rect x="18" y="398" width="68" height="16" rx="8" fill="none" stroke="#C75B12" stroke-width="1"/>
  <text x="52" y="410" text-anchor="middle" fill="#C75B12" font-size="8.5">Em andamento</text>
  <rect x="94" y="398" width="38" height="16" rx="8" fill="none" stroke="#4CAF50" stroke-width="1"/>
  <text x="113" y="410" text-anchor="middle" fill="#4CAF50" font-size="8.5">Pago</text>
  <text x="155" y="410" fill="#C75B12" font-size="9.5" font-weight="600">R$ 480,00</text>
  <rect x="0" y="427" width="220" height="40" fill="#1c1c1e"/>
  <rect x="0" y="427" width="220" height="1" fill="#333"/>
  <text x="22" y="452" text-anchor="middle" fill="#a78bfa" font-size="8">Início</text>
  <text x="66" y="452" text-anchor="middle" fill="#555" font-size="8">Clientes</text>
  <text x="110" y="452" text-anchor="middle" fill="#555" font-size="8">Carros</text>
  <text x="154" y="452" text-anchor="middle" fill="#555" font-size="8">Serviços</text>
  <text x="198" y="452" text-anchor="middle" fill="#555" font-size="8">Mais</text>
  <rect x="0" y="449" width="220" height="18" fill="#111"/>
  <text x="64" y="461" fill="#888" font-size="8">|||</text>
  <text x="105" y="461" text-anchor="middle" fill="#888" font-size="8">○</text>
  <text x="148" y="461" fill="#888" font-size="8">&lt;</text>
</svg>
